<?xml version="1.0" standalone="no"?>
<!DOCTYPE svg PUBLIC "-//W3C//DTD SVG 20010904//EN"
 "http://www.w3.org/TR/2001/REC-SVG-20010904/DTD/svg10.dtd">
<svg version="1.0" xmlns="http://www.w3.org/2000/svg"
 width="1024.000000pt" height="1024.000000pt" viewBox="0 0 1024.000000 1024.000000"
 preserveAspectRatio="xMidYMid meet">
<metadata>
Created by potrace 1.14, written by Peter Selinger 2001-2017
</metadata>
<g transform="translate(0.000000,1024.000000) scale(0.100000,-0.100000)"
fill="#000000" stroke="none">
<path d="M4797 9284 c-5 -5 -94 -15 -169 -18 -16 0 -28 -3 -28 -6 0 -3 -12 -5
-27 -6 -44 -1 -108 -10 -118 -16 -6 -3 -18 -4 -27 -3 -9 2 -34 -1 -55 -6 -21
-5 -49 -12 -63 -14 -36 -6 -69 -13 -88 -19 -9 -3 -28 -7 -42 -10 -14 -3 -38
-8 -55 -12 -16 -4 -38 -7 -47 -8 -10 0 -18 -3 -18 -6 0 -4 -6 -7 -12 -8 -28
-3 -54 -9 -68 -14 -15 -6 -62 -18 -77 -19 -5 0 -14 -5 -21 -11 -7 -6 -15 -8
-19 -5 -3 4 -12 2 -20 -5 -7 -6 -16 -8 -19 -5 -4 3 -13 -1 -21 -9 -8 -8 -18
-12 -23 -9 -4 3 -39 -8 -76 -23 -38 -16 -82 -32 -99 -36 -16 -4 -32 -12 -36
-17 -3 -6 -16 -11 -27 -12 -12 -1 -22 -5 -22 -10 0 -4 -4 -6 -9 -3 -4 3 -17
-1 -27 -9 -10 -8 -27 -15 -36 -15 -10 0 -18 -4 -18 -10 0 -5 -9 -10 -19 -10
-11 0 -23 -5 -26 -10 -4 -6 -11 -8 -16 -5 -5 4 -9 1 -9 -4 0 -6 -3 -10 -7 -9
-15 2 -103 -43 -103 -53 0 -6 -4 -8 -9 -5 -9 6 -134 -54 -139 -66 -2 -5 -12
-8 -23 -8 -10 0 -19 -4 -19 -9 0 -9 -44 -28 -47 -20 0 2 -12 -8 -26 -23 -14
-15 -37 -30 -51 -34 -14 -3 -26 -10 -26 -15 0 -5 -7 -9 -15 -9 -8 0 -15 -5
-15 -11 0 -5 -4 -8 -8 -5 -5 3 -21 -6 -36 -19 -16 -14 -37 -27 -47 -30 -11 -4
-19 -11 -19 -17 0 -6 -3 -9 -6 -5 -3 3 -17 -4 -31 -16 -13 -12 -27 -21 -30
-19 -2 2 -13 -7 -24 -19 -10 -12 -19 -18 -19 -14 0 4 -9 -2 -19 -14 -11 -12
-23 -23 -28 -23 -9 -1 -65 -43 -94 -70 -11 -10 -24 -18 -29 -18 -5 0 -10 -4
-10 -10 0 -5 -7 -10 -16 -10 -8 0 -12 -4 -9 -10 3 -5 -1 -10 -9 -10 -9 0 -16
-5 -16 -10 0 -6 -11 -15 -25 -22 -13 -6 -22 -15 -19 -20 3 -4 -2 -11 -12 -15
-9 -3 -48 -36 -86 -72 -38 -36 -78 -71 -89 -77 -11 -5 -17 -13 -14 -16 4 -3
-7 -16 -24 -29 -17 -12 -28 -26 -25 -31 3 -4 1 -8 -5 -8 -9 0 -81 -66 -81 -74
0 -1 -22 -26 -50 -54 -27 -28 -50 -56 -50 -62 0 -5 -7 -10 -16 -10 -8 0 -13
-3 -10 -8 2 -4 -10 -23 -27 -43 -18 -20 -41 -48 -52 -64 -11 -15 -26 -33 -33
-40 -6 -8 -12 -18 -12 -23 0 -6 -7 -13 -16 -16 -9 -4 -14 -9 -10 -13 3 -3 -3
-13 -14 -20 -11 -8 -18 -19 -15 -24 4 -5 -1 -12 -9 -15 -8 -3 -18 -15 -22 -27
-3 -11 -17 -31 -30 -44 -13 -13 -24 -28 -24 -33 0 -6 -7 -18 -15 -27 -8 -10
-16 -22 -17 -28 -1 -5 -10 -19 -20 -29 -10 -11 -18 -26 -18 -33 0 -7 -4 -13
-10 -13 -5 0 -10 -7 -10 -15 0 -8 -4 -15 -10 -15 -5 0 -9 -3 -8 -7 3 -13 -24
-63 -34 -63 -4 0 -8 -3 -7 -7 3 -20 -14 -52 -25 -46 -6 3 -8 3 -4 -2 4 -4 2
-17 -4 -29 -7 -11 -11 -24 -10 -28 1 -5 -2 -8 -7 -8 -5 0 -12 -11 -15 -25 -4
-14 -11 -25 -17 -25 -6 0 -8 -4 -5 -9 3 -4 -12 -45 -34 -89 -22 -45 -40 -86
-40 -92 0 -5 -4 -10 -10 -10 -5 0 -9 -3 -9 -7 3 -17 -14 -73 -22 -73 -5 0 -9
-6 -9 -14 0 -7 -10 -35 -22 -62 -12 -27 -21 -55 -20 -61 2 -7 -2 -13 -7 -13
-6 0 -8 -7 -5 -15 4 -8 1 -15 -6 -15 -6 0 -10 -6 -7 -12 2 -7 -4 -33 -13 -58
-10 -25 -18 -47 -18 -50 0 -3 -5 -18 -11 -33 -6 -16 -11 -37 -11 -48 0 -11 -4
-18 -9 -15 -5 3 -7 -8 -6 -24 1 -17 -2 -30 -8 -30 -6 0 -8 -3 -4 -6 3 -3 2
-17 -3 -30 -9 -23 -19 -62 -24 -94 -1 -8 -5 -24 -9 -35 -12 -37 -34 -161 -41
-232 -2 -17 -6 -36 -10 -41 -3 -6 -2 -14 4 -17 8 -5 7 -12 -2 -22 -7 -9 -14
-32 -15 -52 -1 -20 -4 -61 -8 -91 -4 -30 -7 -73 -8 -95 -1 -22 -4 -44 -7 -50
-3 -5 -5 -62 -5 -125 0 -65 -4 -118 -10 -122 -7 -5 -7 -11 0 -15 12 -9 13 -93
1 -111 -4 -7 -4 -12 1 -12 4 0 9 -37 9 -83 3 -164 8 -237 17 -237 5 0 4 -6 -2
-13 -6 -8 -8 -17 -4 -21 4 -4 8 -17 9 -29 1 -12 3 -38 5 -57 1 -19 7 -43 12
-54 7 -14 6 -16 -4 -11 -8 5 -10 4 -5 -4 4 -7 10 -31 13 -54 9 -75 10 -82 13
-82 2 0 3 -8 14 -90 3 -22 5 -40 6 -40 2 0 5 -16 13 -60 3 -16 9 -41 12 -55 4
-14 8 -34 10 -45 2 -11 4 -20 5 -20 1 0 3 -8 6 -17 2 -10 6 -26 8 -35 3 -10 5
-18 6 -18 3 0 10 -39 13 -67 1 -14 6 -24 11 -21 5 3 6 0 4 -8 -3 -8 0 -25 7
-39 7 -14 18 -47 24 -75 7 -27 16 -54 20 -60 5 -5 11 -22 15 -37 3 -15 11 -40
18 -55 6 -15 12 -34 14 -42 1 -8 6 -17 11 -20 7 -5 12 -23 15 -58 1 -7 5 -13
9 -13 6 0 16 -23 24 -59 2 -7 8 -18 14 -24 6 -6 11 -19 11 -29 0 -10 5 -18 10
-18 6 0 10 -6 10 -14 0 -15 140 -296 158 -319 7 -8 9 -17 5 -20 -3 -4 -1 -7 5
-7 7 0 12 -7 12 -15 0 -8 5 -15 12 -15 6 0 9 -3 5 -6 -3 -3 10 -28 29 -55 19
-27 31 -49 27 -49 -5 0 0 -5 10 -11 9 -5 17 -15 17 -20 0 -6 11 -25 25 -43 14
-18 25 -36 25 -40 0 -7 13 -24 48 -61 12 -13 22 -28 22 -33 0 -5 12 -22 28
-38 15 -16 27 -32 27 -35 0 -6 43 -61 87 -112 14 -17 24 -36 21 -41 -3 -5 -2
-7 3 -4 8 4 76 -59 78 -72 2 -18 262 -280 277 -280 6 0 8 -3 6 -7 -6 -10 19
-34 27 -26 3 4 6 -1 6 -11 0 -9 5 -14 10 -11 6 3 13 -1 16 -9 3 -9 10 -16 15
-16 13 0 58 -48 50 -55 -3 -4 -1 -5 5 -3 11 3 63 -34 110 -80 13 -13 24 -20
24 -17 0 3 11 -5 24 -19 13 -15 31 -26 40 -26 10 0 14 -4 11 -10 -3 -5 0 -10
9 -10 8 0 16 -4 18 -8 1 -5 26 -23 53 -42 28 -18 52 -37 55 -40 3 -4 16 -13
29 -20 14 -7 30 -17 35 -21 27 -22 119 -79 127 -79 5 0 9 -5 9 -10 0 -6 3 -9
8 -8 4 1 26 -10 49 -25 24 -15 47 -27 53 -27 5 0 10 -5 10 -11 0 -5 4 -8 9 -4
6 3 14 -2 19 -11 5 -9 12 -15 15 -15 4 1 35 -13 70 -31 34 -18 65 -31 70 -30
4 1 7 -2 7 -8 0 -5 9 -10 20 -10 11 0 20 -4 20 -8 0 -5 18 -15 40 -22 22 -7
40 -17 40 -21 0 -5 7 -6 15 -3 8 4 15 1 15 -7 0 -7 3 -10 6 -6 4 3 28 -5 55
-19 27 -13 49 -21 49 -18 0 4 7 0 16 -7 9 -7 26 -15 37 -16 12 -2 23 -8 25
-13 2 -5 10 -6 18 -3 8 3 14 0 14 -6 0 -6 3 -10 8 -10 4 1 9 0 12 -1 3 -1 12
-3 20 -5 8 -2 42 -13 75 -25 33 -12 71 -24 84 -26 13 -3 39 -11 57 -19 19 -8
34 -11 34 -8 0 3 6 1 13 -5 6 -5 38 -16 70 -23 31 -8 57 -16 57 -19 0 -3 16
-6 36 -7 19 -1 43 -8 52 -15 13 -11 15 -11 7 2 -7 12 -6 13 6 3 8 -7 31 -14
50 -17 19 -2 41 -7 49 -10 17 -6 92 -18 131 -21 14 -1 31 -5 38 -9 7 -5 15 -6
18 -3 3 3 16 2 30 -4 16 -6 22 -6 18 2 -4 5 10 3 29 -5 20 -8 34 -11 31 -6 -3
6 -1 10 4 10 6 0 11 -6 11 -12 0 -9 4 -8 10 2 5 8 10 11 10 5 0 -5 21 -10 48
-9 26 0 51 -2 56 -4 35 -19 686 -20 686 -2 0 3 11 5 25 5 14 0 25 -3 25 -7 0
-5 5 -8 11 -8 5 0 7 4 4 10 -4 6 12 9 40 7 25 -1 45 0 45 4 0 3 20 6 45 5 25
-1 45 2 45 5 0 4 17 7 38 8 46 2 71 6 97 14 11 3 37 8 59 12 21 3 43 8 49 12
6 4 25 8 42 9 16 1 30 2 30 3 0 3 22 8 60 16 66 13 81 16 95 21 8 3 29 8 45
11 17 3 38 9 48 14 9 5 17 7 17 3 0 -3 6 -2 13 4 6 6 41 18 77 27 69 17 224
70 252 85 10 6 24 10 32 10 8 0 40 13 70 29 32 16 56 24 56 17 0 -8 2 -8 8 0
8 13 143 79 155 76 4 -1 7 3 7 9 0 5 5 7 10 4 6 -3 10 -2 10 2 0 5 19 17 43
28 23 10 54 27 70 37 15 11 27 16 27 11 0 -4 4 -2 9 5 4 7 14 14 22 15 8 2 34
16 59 32 25 17 62 39 83 49 20 11 37 23 37 28 0 5 4 7 9 4 4 -3 16 3 26 14 10
11 23 20 30 20 7 0 24 11 39 25 14 13 26 21 26 18 0 -3 8 1 18 10 10 10 22 14
26 10 4 -5 6 -3 4 2 -2 6 -1 10 2 10 3 0 12 6 20 13 26 22 57 46 87 67 15 11
38 30 50 42 13 12 23 20 23 17 0 -3 6 0 13 6 33 28 65 54 90 73 16 12 49 41
73 64 24 24 44 41 44 38 0 -3 22 17 50 45 27 27 55 50 62 50 6 0 9 2 6 5 -2 3
37 49 89 103 140 146 153 161 153 172 0 5 7 10 16 10 8 0 13 4 10 9 -4 5 -3
11 1 13 5 1 26 26 47 53 22 28 46 56 55 62 8 7 11 13 5 13 -5 0 -4 4 1 8 14 9
75 88 75 96 0 3 8 15 18 25 32 37 42 50 42 61 0 5 5 10 10 10 6 0 10 7 10 15
0 8 3 15 8 15 4 0 16 17 27 38 11 20 22 39 26 42 3 3 14 21 25 40 10 19 22 37
25 40 14 12 67 119 62 124 -4 3 -1 6 6 6 7 0 9 5 6 10 -3 5 -2 10 3 10 10 0
107 190 104 203 -1 4 2 7 8 7 6 0 9 3 8 8 -1 4 4 20 11 36 6 16 13 37 14 47 2
10 11 27 21 37 9 11 18 29 19 41 1 11 5 21 9 21 4 0 8 8 8 18 0 9 7 30 15 46
8 15 15 34 15 41 0 6 7 26 15 43 9 17 18 39 20 49 2 10 8 30 13 44 6 15 8 30
5 33 -4 3 -2 6 4 6 5 0 10 6 10 13 0 15 33 128 41 142 4 6 8 19 9 30 2 11 6
27 10 35 3 8 5 21 4 28 -1 6 4 12 11 12 9 0 9 3 -2 10 -11 7 -11 10 -2 10 7 0
10 5 7 10 -3 5 -3 16 2 22 4 7 9 22 10 33 5 34 11 70 13 70 2 0 7 23 15 75 8
54 13 75 15 75 1 0 3 14 5 30 1 17 3 30 5 30 1 0 3 18 4 40 1 22 4 45 7 50 2
6 4 25 4 43 0 17 2 32 5 32 3 0 5 27 5 60 0 33 4 60 10 60 6 0 3 5 -5 10 -8 5
-10 10 -4 10 12 0 12 12 17 323 3 131 0 220 -6 224 -5 3 -4 9 3 13 9 6 9 13 1
29 -8 15 -9 21 -1 21 6 0 8 5 4 11 -6 10 -13 90 -17 196 -1 24 -5 43 -9 43 -3
0 -5 23 -4 50 1 28 -2 50 -7 50 -5 0 -5 9 -2 20 4 12 2 20 -5 20 -7 0 -8 6 -1
18 6 11 6 23 2 28 -5 5 -12 27 -15 49 -9 63 -15 97 -26 140 -6 22 -12 49 -14
60 -1 11 -8 33 -14 48 -15 35 -15 40 -1 31 7 -4 7 1 -1 16 -13 25 -28 70 -36
110 -3 14 -11 37 -19 53 -7 15 -9 27 -4 27 5 0 2 11 -7 25 -9 14 -14 25 -10
25 5 0 -11 50 -34 105 -14 31 -24 69 -22 78 1 4 -3 7 -9 7 -5 0 -8 4 -5 9 3 5
-2 24 -11 42 -10 19 -19 43 -20 54 -2 11 -8 22 -13 23 -6 2 -10 10 -10 18 0 8
-7 26 -16 39 -9 14 -14 25 -11 25 3 0 -8 27 -24 60 -16 33 -29 64 -29 69 0 5
-7 14 -15 21 -9 7 -13 15 -10 18 3 3 0 11 -6 19 -6 7 -8 13 -5 13 4 0 -2 10
-13 22 -11 11 -18 25 -15 30 3 4 1 8 -4 8 -6 0 -13 11 -16 25 -4 14 -11 25
-17 25 -6 0 -7 5 -4 10 3 6 2 10 -2 10 -5 0 -15 16 -22 35 -7 19 -16 35 -20
35 -4 0 -13 16 -21 35 -8 19 -17 35 -22 35 -4 0 -8 7 -8 15 0 8 -4 15 -10 15
-5 0 -10 5 -10 11 0 6 -8 21 -17 34 -26 34 -73 103 -99 147 -6 10 -14 15 -17
11 -4 -3 -7 1 -7 11 0 9 -12 28 -26 41 -15 14 -24 25 -20 25 4 0 -3 11 -16 24
-13 13 -30 33 -38 46 -8 13 -25 33 -37 46 -13 13 -23 26 -23 30 0 4 -10 17
-22 29 -13 12 -37 38 -55 58 -18 21 -37 37 -43 37 -5 0 -9 4 -7 9 3 13 -304
311 -321 311 -4 0 -14 9 -22 20 -8 11 -20 20 -28 20 -7 0 -10 5 -7 10 3 6 -1
10 -9 10 -8 0 -20 8 -25 18 -6 9 -11 14 -11 10 0 -7 -25 11 -55 40 -8 6 -16
12 -20 12 -7 0 -30 19 -53 43 -9 9 -22 17 -29 17 -7 0 -13 4 -13 9 0 5 -8 12
-17 15 -10 3 -29 16 -43 28 -37 33 -88 68 -99 68 -5 0 -11 3 -13 8 -5 11 -88
63 -88 55 0 -5 -4 -2 -9 6 -5 8 -17 16 -26 17 -9 1 -24 11 -33 22 -9 10 -23
17 -31 14 -8 -3 -11 0 -7 7 5 7 -1 11 -13 11 -12 0 -21 5 -21 11 0 5 -4 8 -9
5 -5 -4 -11 -3 -13 1 -5 12 -168 95 -168 86 0 -4 -4 -3 -8 3 -9 15 -87 54
-107 54 -8 0 -15 5 -15 10 0 6 -5 10 -10 10 -6 0 -30 9 -52 20 -23 11 -48 20
-55 20 -7 0 -13 5 -13 11 0 5 -4 8 -8 5 -4 -2 -21 1 -37 9 -35 15 -146 58
-160 62 -5 1 -23 6 -40 9 -16 4 -38 13 -47 22 -11 9 -18 10 -18 4 0 -7 -10 -6
-27 4 -16 7 -35 14 -43 14 -9 0 -26 8 -39 17 -18 12 -22 13 -16 2 7 -12 6 -12
-7 -1 -9 7 -22 11 -29 10 -8 -2 -13 3 -11 10 2 10 -2 10 -17 2 -14 -7 -22 -7
-26 1 -4 6 -13 8 -21 5 -8 -3 -14 -2 -14 2 0 4 -14 9 -31 10 -18 1 -37 6 -42
9 -6 4 -20 8 -32 10 -28 4 -60 11 -60 14 0 1 -9 3 -20 5 -67 10 -80 13 -80 15
0 1 -16 3 -35 4 -19 2 -35 4 -35 5 0 5 -113 22 -162 24 -18 0 -33 4 -33 7 0 3
-18 5 -40 4 -22 -1 -40 3 -40 8 0 5 -7 4 -15 -3 -8 -7 -15 -8 -15 -3 0 5 -25
9 -55 8 -30 0 -55 3 -55 8 0 4 -9 3 -20 -3 -11 -6 -20 -7 -20 -2 0 10 -505 10
-516 0 -4 -4 -12 -3 -19 2 -7 5 -14 7 -18 4z m-713 -1978 c51 -1 97 -5 102 -9
6 -3 30 -8 52 -9 23 -2 42 -7 42 -11 0 -5 4 -6 9 -2 5 3 12 1 16 -4 3 -6 12
-8 20 -4 8 3 15 1 15 -4 0 -5 10 -9 23 -8 12 1 28 -3 36 -9 8 -6 17 -10 20
-10 8 2 48 -13 85 -32 16 -8 35 -14 43 -14 8 0 11 -4 8 -10 -3 -5 1 -10 9 -10
19 0 94 -39 124 -65 12 -11 26 -20 30 -20 8 0 55 -41 130 -116 72 -70 113
-120 107 -130 -3 -4 4 -10 15 -14 11 -4 18 -10 15 -15 -3 -5 2 -16 11 -24 8
-9 13 -16 10 -16 -3 0 6 -16 19 -36 14 -20 25 -43 25 -50 0 -8 4 -14 9 -14 5
0 12 -7 15 -16 4 -9 2 -13 -5 -8 -6 4 -5 -4 2 -17 13 -24 15 -30 18 -49 2 -20
21 -9 27 15 3 14 11 25 17 25 6 0 7 3 4 7 -8 8 83 183 95 183 5 0 7 4 4 8 -3
5 10 26 29 48 19 21 35 45 35 53 0 8 3 12 6 8 7 -7 64 53 64 67 0 5 2 7 5 4 3
-3 25 12 48 33 22 22 48 39 56 39 8 0 12 3 8 6 -8 8 51 48 138 93 39 19 72 38
75 41 3 3 14 7 25 8 11 2 25 8 32 14 7 5 17 7 23 3 5 -3 10 -2 10 3 0 5 15 13
33 17 17 4 37 9 42 10 6 2 19 5 30 8 11 2 31 7 45 10 67 17 253 35 280 27 3 0
39 -3 80 -5 41 -2 87 -6 103 -9 15 -3 38 -8 52 -11 14 -3 37 -8 53 -11 15 -3
35 -6 45 -7 9 -1 17 -5 17 -10 0 -4 6 -7 13 -5 17 3 107 -25 107 -34 0 -4 3
-7 8 -6 14 4 52 -13 52 -23 0 -6 5 -7 11 -3 6 3 14 3 18 -2 3 -5 17 -15 30
-22 19 -11 22 -11 15 0 -4 7 4 3 18 -9 13 -13 29 -23 35 -23 6 0 16 -7 23 -15
7 -8 21 -15 31 -15 11 0 19 -7 19 -15 0 -8 9 -15 20 -15 11 0 20 -4 20 -10 0
-5 5 -10 11 -10 6 0 16 -6 24 -12 32 -31 54 -46 59 -41 3 4 6 0 6 -8 0 -8 14
-23 30 -32 17 -10 30 -23 30 -28 0 -6 5 -7 10 -4 6 3 10 2 10 -3 0 -13 83 -97
93 -94 4 1 7 -4 7 -11 0 -6 14 -27 31 -44 16 -18 26 -33 22 -33 -4 0 0 -5 10
-11 9 -5 17 -17 17 -24 0 -8 5 -15 10 -15 6 0 10 -7 10 -15 0 -9 7 -18 16 -22
8 -3 13 -11 10 -18 -3 -8 2 -16 11 -19 9 -4 13 -13 9 -22 -3 -8 -2 -12 4 -9 6
3 10 1 10 -5 0 -7 9 -25 21 -42 12 -16 22 -40 23 -53 0 -13 4 -21 9 -18 6 4
11 -12 8 -29 0 -5 4 -8 9 -8 6 0 10 -6 10 -13 0 -20 24 -67 34 -67 5 0 3 -6
-3 -14 -10 -11 -8 -17 6 -25 14 -8 15 -10 3 -11 -13 0 -13 -1 0 -10 8 -5 11
-10 7 -10 -5 0 -5 -6 0 -12 8 -13 12 -29 15 -60 1 -10 5 -18 9 -18 4 0 7 -10
7 -22 0 -13 3 -34 6 -48 8 -28 16 -89 19 -137 2 -17 5 -35 9 -38 3 -3 2 -22
-2 -41 -4 -18 -5 -34 -1 -34 4 0 7 -16 7 -35 -1 -19 -3 -35 -6 -35 -3 0 -5
-26 -6 -58 -1 -85 -13 -165 -27 -174 -9 -6 -9 -8 1 -8 8 0 10 -5 6 -12 -5 -7
-9 -19 -10 -28 -4 -26 -9 -45 -15 -55 -4 -5 -5 -20 -4 -32 1 -13 -3 -23 -8
-23 -6 0 -8 -3 -4 -6 3 -4 0 -19 -8 -34 -8 -15 -12 -30 -9 -32 2 -3 -2 -11
-10 -17 -8 -7 -12 -19 -9 -27 3 -8 0 -14 -6 -14 -6 0 -11 -9 -11 -19 0 -11 -5
-23 -10 -26 -6 -4 -8 -11 -5 -16 4 -5 1 -9 -5 -9 -7 0 -10 -6 -7 -14 3 -8 -1
-17 -9 -20 -9 -3 -12 -10 -9 -16 3 -5 1 -10 -4 -10 -6 0 -11 -6 -11 -12 0 -7
-11 -26 -25 -42 -15 -17 -23 -36 -20 -45 3 -9 3 -12 -1 -8 -4 4 -15 -7 -25
-23 -11 -17 -24 -30 -30 -30 -6 0 -9 -7 -5 -15 3 -9 0 -15 -10 -15 -8 0 -13
-4 -10 -9 3 -5 -1 -12 -10 -15 -9 -4 -14 -9 -11 -12 8 -8 -16 -33 -25 -27 -5
2 -8 -1 -8 -7 0 -6 -15 -25 -32 -43 -18 -17 -32 -35 -31 -39 2 -4 -6 -10 -17
-13 -11 -4 -20 -11 -20 -16 0 -6 -5 -7 -12 -3 -7 5 -8 3 -3 -6 4 -7 3 -15 -3
-19 -27 -16 -152 -143 -152 -153 0 -6 -3 -8 -6 -5 -4 3 -15 -5 -26 -18 -11
-14 -24 -22 -30 -19 -6 4 -8 2 -5 -3 4 -6 -13 -29 -38 -51 -24 -22 -41 -42
-38 -46 4 -3 2 -6 -4 -6 -6 0 -53 -43 -105 -95 -52 -52 -92 -95 -90 -95 3 0
-12 -13 -33 -30 -21 -16 -35 -30 -32 -30 3 0 -9 -15 -26 -33 -18 -18 -34 -31
-36 -30 -2 1 -17 -14 -32 -34 -16 -20 -29 -33 -29 -31 0 3 -21 -15 -48 -41
-26 -25 -47 -48 -46 -51 0 -3 -7 -13 -18 -22 -10 -10 -18 -15 -18 -12 0 3 -7
-1 -15 -10 -8 -8 -15 -19 -15 -25 0 -6 -3 -10 -8 -8 -4 1 -8 -2 -9 -7 -1 -5
-14 -17 -30 -27 -15 -10 -23 -19 -18 -19 6 -1 -1 -7 -15 -15 -14 -7 -25 -17
-25 -22 0 -4 -3 -7 -7 -6 -5 2 -8 -1 -8 -7 0 -11 -50 -62 -51 -52 0 4 -4 -3
-9 -15 -5 -13 -16 -23 -25 -23 -8 0 -15 -4 -15 -8 0 -4 -20 -29 -45 -54 -25
-26 -45 -45 -45 -42 0 3 -6 -1 -14 -8 -8 -7 -13 -15 -12 -18 1 -3 -17 -24 -41
-46 -24 -23 -43 -40 -43 -37 0 3 -13 -10 -29 -30 -15 -20 -31 -34 -34 -31 -3
3 -8 -4 -12 -15 -3 -12 -14 -21 -22 -21 -9 0 -14 -3 -10 -6 3 -4 -12 -22 -34
-40 -23 -19 -39 -34 -36 -34 3 0 -6 -13 -21 -28 -15 -16 -29 -28 -32 -28 -3 1
-6 -3 -7 -8 -1 -5 -13 -16 -27 -26 -15 -9 -23 -20 -19 -23 3 -4 -1 -7 -11 -7
-9 0 -15 -3 -13 -7 2 -5 -4 -16 -15 -25 -10 -10 -18 -15 -18 -12 0 3 -16 -14
-36 -38 -20 -23 -38 -42 -40 -40 -2 1 -5 -1 -5 -5 -1 -5 -16 -18 -32 -30 -17
-13 -28 -23 -24 -23 4 0 -1 -8 -10 -18 -10 -10 -20 -17 -22 -16 -6 5 -31 -24
-31 -35 0 -6 -4 -10 -9 -8 -5 1 -9 -1 -10 -6 0 -4 -16 -22 -34 -40 -18 -17
-36 -40 -40 -49 -3 -10 -11 -18 -17 -18 -6 0 -9 -4 -6 -9 3 -5 -1 -14 -9 -21
-8 -7 -15 -17 -15 -23 0 -6 -8 -19 -17 -30 -10 -11 -12 -17 -6 -13 9 5 11 2 7
-8 -3 -9 -10 -16 -16 -16 -5 0 -6 -4 -3 -10 3 -5 1 -10 -5 -10 -6 0 -9 -4 -6
-8 3 -5 -2 -21 -9 -36 -8 -16 -13 -31 -10 -36 2 -4 -7 -12 -20 -18 -17 -8 -25
-8 -25 -1 0 6 -4 8 -8 5 -5 -3 -9 0 -10 7 -2 23 -8 43 -32 92 -13 28 -23 56
-23 63 0 6 -4 12 -8 12 -8 0 -19 28 -18 43 0 5 -13 22 -30 38 -17 16 -28 29
-24 29 3 0 -33 38 -81 86 -47 47 -86 89 -86 95 0 5 -4 9 -9 9 -12 0 -99 89
-93 95 3 3 1 5 -5 5 -14 0 -53 35 -53 49 0 6 -5 11 -11 11 -15 0 -59 47 -51
54 3 3 0 6 -6 6 -12 0 -92 79 -92 92 0 4 -4 8 -10 8 -5 0 -23 15 -40 33 -67
72 -114 117 -122 117 -4 0 -8 6 -8 13 0 8 -11 20 -25 27 -14 7 -25 16 -25 20
0 10 -101 110 -112 110 -5 0 -7 4 -3 9 3 5 -4 12 -15 16 -11 3 -20 10 -20 14
0 12 -68 80 -74 73 -3 -3 -6 2 -6 11 0 8 -9 19 -20 22 -11 4 -18 11 -15 16 4
5 -5 14 -18 20 -14 6 -31 22 -38 35 -7 13 -19 24 -27 24 -9 0 -13 2 -10 5 6 7
-125 141 -134 137 -5 -1 -8 2 -8 8 0 12 -48 60 -60 60 -6 0 -9 3 -8 8 2 4
-161 172 -362 373 -201 201 -385 393 -410 427 -24 34 -48 62 -53 62 -4 0 -5 5
-2 10 3 6 1 10 -4 10 -6 0 -11 7 -11 15 0 9 -7 18 -15 21 -8 4 -13 9 -10 14 2
4 -4 16 -14 26 -9 11 -16 25 -13 32 2 6 -1 12 -8 12 -6 0 -8 5 -5 10 3 6 3 10
-2 10 -7 0 -34 50 -39 70 -7 33 -17 59 -23 56 -4 -3 -7 4 -8 14 -1 10 -9 40
-18 67 -9 26 -19 56 -21 66 -12 49 -15 65 -21 97 -3 19 -6 42 -6 50 0 8 -5 18
-11 22 -7 5 -7 8 2 8 8 0 10 5 6 12 -12 19 -12 48 0 48 6 0 5 4 -3 9 -8 5 -11
16 -8 25 4 9 3 16 -1 16 -6 0 -7 46 -1 156 1 22 -1 46 -5 52 -4 7 -3 12 1 12
5 0 8 15 8 33 -1 17 1 37 4 42 3 6 6 21 7 35 1 14 5 37 8 53 3 15 8 39 11 55
3 15 8 34 12 42 7 19 13 40 15 63 1 9 5 17 9 17 7 0 23 56 22 78 0 6 3 12 9
12 5 0 7 4 3 9 -3 6 1 13 9 18 8 4 15 11 15 16 2 25 15 57 23 57 5 0 7 4 3 9
-3 5 2 16 10 25 9 8 16 19 17 23 4 26 11 43 18 43 5 0 12 10 16 22 3 12 15 31
25 42 11 11 19 25 19 31 0 6 9 17 20 25 11 8 20 18 20 22 0 9 36 53 62 76 9 9
15 19 12 23 -2 4 4 10 14 13 10 4 25 17 32 31 7 13 16 23 19 22 3 -1 27 18 53
43 54 52 63 59 99 82 14 9 33 24 42 32 8 8 21 17 28 18 8 2 21 10 29 18 8 8
22 16 30 18 8 2 22 9 30 17 8 7 25 16 38 19 12 4 22 12 22 17 0 5 3 8 8 7 13
-4 82 26 82 36 0 5 3 7 6 3 3 -3 26 3 50 13 24 11 45 19 47 19 1 -1 22 5 47
12 48 13 74 19 103 21 9 1 17 5 17 8 0 3 12 5 28 4 15 -1 31 1 37 4 5 3 38 7
73 8 35 1 66 4 69 8 3 3 10 3 16 -1 5 -3 51 -6 101 -7z"/>
</g>
</svg>
